<?xml version="1.0" encoding="UTF-8" standalone="no"?>
<!-- Created with Inkscape (http://www.inkscape.org/) -->

<svg
   width="210mm"
   height="297mm"
   viewBox="0 0 210 297"
   version="1.1"
   id="svg1"
   inkscape:version="1.3.2 (091e20ef0f, 2023-11-25)"
   sodipodi:docname="shapes.svg"
   xmlns:inkscape="http://www.inkscape.org/namespaces/inkscape"
   xmlns:sodipodi="http://sodipodi.sourceforge.net/DTD/sodipodi-0.dtd"
   xmlns="http://www.w3.org/2000/svg"
   xmlns:svg="http://www.w3.org/2000/svg">
  <sodipodi:namedview
     id="namedview1"
     pagecolor="#ffffff"
     bordercolor="#000000"
     borderopacity="0.25"
     inkscape:showpageshadow="2"
     inkscape:pageopacity="0.0"
     inkscape:pagecheckerboard="0"
     inkscape:deskcolor="#d1d1d1"
     inkscape:document-units="mm"
     inkscape:zoom="3.0762082"
     inkscape:cx="424.87371"
     inkscape:cy="209.83625"
     inkscape:window-width="3840"
     inkscape:window-height="2091"
     inkscape:window-x="0"
     inkscape:window-y="32"
     inkscape:window-maximized="1"
     inkscape:current-layer="layer1" />
  <defs
     id="defs1" />
  <g
     inkscape:label="Layer 1"
     inkscape:groupmode="layer"
     id="layer1">
    <rect
       style="fill:#ffffff;fill-opacity:1;stroke-width:0.264583;-inkscape-stroke:none"
       id="rect1"
       width="16"
       height="16"
       x="79.923157"
       y="40.892433" />
    <path
       id="path3"
       d="m 87.923152,42.409498 -6.48293,12.96587 h 12.96587 z"
       style="fill:#de8f05;fill-opacity:1;fill-rule:nonzero;stroke:none;stroke-width:0.352778" />
    <rect
       style="fill:#ffffff;fill-opacity:1;stroke-width:0.264583;-inkscape-stroke:none"
       id="rect1-5"
       width="16"
       height="16"
       x="100.9519"
       y="40.73571" />
    <rect
       style="fill:#ffffff;fill-opacity:1;stroke-width:0.264583;-inkscape-stroke:none"
       id="rect1-3"
       width="16"
       height="16"
       x="123.825"
       y="39.952084" />
    <rect
       style="fill:#ffffff;fill-opacity:1;stroke-width:0.264583;-inkscape-stroke:none"
       id="rect1-8"
       width="16"
       height="16"
       x="142.08125"
       y="39.422916" />
    <rect
       style="fill:#ffffff;fill-opacity:1;stroke-width:0.264583;-inkscape-stroke:none"
       id="rect1-6"
       width="16"
       height="16"
       x="162.98334"
       y="40.216667" />
    <rect
       style="fill:#ffffff;fill-opacity:1;stroke-width:0.264583;-inkscape-stroke:none"
       id="rect1-51"
       width="16"
       height="16"
       x="181.23959"
       y="40.481251" />
    <rect
       style="fill:#ffffff;fill-opacity:1;stroke-width:0.264583;-inkscape-stroke:none"
       id="rect1-4"
       width="16"
       height="16"
       x="199.76042"
       y="40.216667" />
    <path
       id="path6"
       d="m 108.9519,42.032933 -7.04772,5.120467 2.69199,8.285088 h 8.71145 l 2.69199,-8.285088 z"
       style="fill:#d55e00;fill-opacity:1;fill-rule:nonzero;stroke:none;stroke-width:0.352778" />
    <path
       id="path9"
       d="m 125.34206,54.435019 h 12.96587 v -12.96587 h -12.96587 z"
       style="fill:#029e73;fill-opacity:1;fill-rule:nonzero;stroke:none;stroke-width:0.352778" />
    <path
       id="path12-6"
       d="m 150.08125,40.939976 -5.61438,3.241464 v 6.482953 l 5.61438,3.241463 5.61438,-3.241463 V 44.18144 Z"
       style="fill:#cc78bc;fill-opacity:1;fill-rule:nonzero;stroke:none;stroke-width:0.352777" />
    <path
       id="path15"
       d="m 170.98333,54.699602 c 1.7193,0 3.36841,-0.683084 4.58413,-1.898808 1.21573,-1.215725 1.89881,-2.864832 1.89881,-4.584127 0,-1.719295 -0.68308,-3.368402 -1.89881,-4.584127 -1.21572,-1.215725 -2.86483,-1.898808 -4.58413,-1.898808 -1.71929,0 -3.3684,0.683083 -4.58412,1.898808 -1.21573,1.215725 -1.89881,2.864832 -1.89881,4.584127 0,1.719295 0.68308,3.368402 1.89881,4.584127 1.21572,1.215724 2.86483,1.898808 4.58412,1.898808 z"
       style="fill:#0173b2;fill-opacity:1;fill-rule:nonzero;stroke:none;stroke-width:0.352778" />
    <path
       id="path18"
       d="m 189.2396,41.206271 -1.80577,5.55759 h -5.8436 l 4.72757,3.434779 -1.80577,5.557591 4.72757,-3.43478 4.72756,3.43478 -1.80577,-5.557591 4.72757,-3.434779 h -5.84359 z"
       style="fill:#fbafe4;fill-opacity:1;fill-rule:nonzero;stroke:none;stroke-width:0.352778" />
    <path
       id="path21"
       d="m 207.76042,55.97381 7.75714,-7.757143 -7.75714,-7.757142 -7.75714,7.757142 z"
       style="fill:#ca9161;fill-opacity:1;fill-rule:nonzero;stroke:none;stroke-width:0.352778" />
  </g>
</svg>
